<svg xmlns="http://www.w3.org/2000/svg" viewBox="0 0 48 48" width="48" height="48" aria-hidden="true">
  <path fill="#FFC107" d="M43.611,20.083H42V20H24v8h11.303c-1.649,4.657-6.08,8-11.303,8c-6.627,0-12-5.373-12-12 s5.373-12,12-12c3.059,0,5.842,1.154,7.961,3.039l5.657-5.657C34.046,6.053,29.268,4,24,4C12.955,4,4,12.955,4,24 s8.955,20,20,20s20-8.955,20-20C44,22.659,43.861,21.35,43.611,20.083z"/>
  <path fill="#FF3D00" d="M6.306,14.691l6.571,4.816C14.655,16.108,18.961,12,24,12c3.059,0,5.842,1.154,7.961,3.039l5.657-5.657 C34.046,6.053,29.268,4,24,4C16.318,4,9.656,8.337,6.306,14.691z"/>
  <path fill="#4CAF50" d="M24,44c5.166,0,9.86-1.977,13.409-5.197l-6.192-5.238C29.233,34.488,26.77,35.6,24,35.6 c-5.188,0-9.6-3.313-11.229-7.943l-6.53,5.027C9.556,39.594,16.227,44,24,44z"/>
  <path fill="#1976D2" d="M43.611,20.083H42V20H24v8h11.303c-0.793,2.239-2.232,4.159-3.994,5.565 c0.001-0.001,0.002-0.001,0.003-0.002l6.192,5.238C35.185,40.859,44,36,44,24C44,22.659,43.861,21.35,43.611,20.083z"/>
</svg>

